HIERARCHY
ROOT Hips
{
    OFFSET 0.000000 97.120003 0.000000
    CHANNELS 6 Xposition Yposition Zposition Yrotation Xrotation Zrotation
    JOINT RightUpLeg
    {
        OFFSET -11.000000 -0.000000 0.000000
        CHANNELS 3 Yrotation Xrotation Zrotation
        JOINT RightLeg
        {
            OFFSET 0.000000 -45.062000 0.000000
            CHANNELS 3 Yrotation Xrotation Zrotation
            JOINT RightFoot
            {
                OFFSET 0.000000 -42.057999 0.000000
                CHANNELS 3 Yrotation Xrotation Zrotation
                End Site
                {
                    OFFSET 0.000000 -10.000000 15.120000
                }
            }
        }
    }
    JOINT LeftUpLeg
    {
        OFFSET 11.000000 -0.000000 0.000000
        CHANNELS 3 Yrotation Xrotation Zrotation
        JOINT LeftLeg
        {
            OFFSET 0.000000 -45.062000 0.000000
            CHANNELS 3 Yrotation Xrotation Zrotation
            JOINT LeftFoot
            {
                OFFSET 0.000000 -42.057999 0.000000
                CHANNELS 3 Yrotation Xrotation Zrotation
                End Site
                {
                    OFFSET 0.000000 -10.000000 15.120000
                }
            }
        }
    }
    JOINT Spine
    {
        OFFSET 0.000000 8.120000 0.000000
        CHANNELS 3 Yrotation Xrotation Zrotation
        JOINT Spine1
        {
            OFFSET 0.000000 17.980000 0.000000
            CHANNELS 3 Yrotation Xrotation Zrotation
            JOINT Spine2
            {
                OFFSET 0.000000 12.760000 0.000000
                CHANNELS 3 Yrotation Xrotation Zrotation
                JOINT Neck
                {
                    OFFSET 0.000000 19.139999 0.000000
                    CHANNELS 3 Yrotation Xrotation Zrotation
                    JOINT Neck1
                    {
                        OFFSET 0.000000 4.250000 0.000000
                        CHANNELS 3 Yrotation Xrotation Zrotation
                        JOINT Head
                        {
                            OFFSET 0.000000 4.250000 0.000000
                            CHANNELS 3 Yrotation Xrotation Zrotation
                            End Site
                            {
                                OFFSET 0.000000 19.120001 0.000000
                            }
                        }
                    }
                }
                JOINT RightShoulder
                {
                    OFFSET -2.900000 13.340000 0.000000
                    CHANNELS 3 Yrotation Xrotation Zrotation
                    JOINT RightArm
                    {
                        OFFSET -16.100000 0.000000 0.000000
                        CHANNELS 3 Yrotation Xrotation Zrotation
                        JOINT RightForeArm
                        {
                            OFFSET -28.000000 0.000000 0.000000
                            CHANNELS 3 Yrotation Xrotation Zrotation
                            JOINT RightHand
                            {
                                OFFSET -26.000000 0.000000 0.000000
                                CHANNELS 3 Yrotation Xrotation Zrotation
                                JOINT RightHandThumb1
                                {
                                    OFFSET -1.937000 -0.484000 2.518000
                                    CHANNELS 3 Yrotation Xrotation Zrotation
                                    JOINT RightHandThumb2
                                    {
                                        OFFSET -3.872000 0.000000 0.000000
                                        CHANNELS 3 Yrotation Xrotation Zrotation
                                        JOINT RightHandThumb3
                                        {
                                            OFFSET -2.690000 0.000000 0.000000
                                            CHANNELS 3 Yrotation Xrotation Zrotation
                                            End Site
                                            {
                                                OFFSET -2.537000 0.000000 0.000000
                                            }
                                        }
                                    }
                                }
                                JOINT RightInHandIndex
                                {
                                    OFFSET -3.389000 0.535000 2.080000
                                    CHANNELS 3 Yrotation Xrotation Zrotation
                                    JOINT RightHandIndex1
                                    {
                                        OFFSET -5.485000 -0.096000 1.051000
                                        CHANNELS 3 Yrotation Xrotation Zrotation
                                        JOINT RightHandIndex2
                                        {
                                            OFFSET -3.806000 0.000000 0.000000
                                            CHANNELS 3 Yrotation Xrotation Zrotation
                                            JOINT RightHandIndex3
                                            {
                                                OFFSET -2.158000 0.000000 0.000000
                                                CHANNELS 3 Yrotation Xrotation Zrotation
                                                End Site
                                                {
                                                    OFFSET -1.898000 0.000000 0.000000
                                                }
                                            }
                                        }
                                    }
                                }
                                JOINT RightInHandMiddle
                                {
                                    OFFSET -3.556000 0.544000 0.796000
                                    CHANNELS 3 Yrotation Xrotation Zrotation
                                    JOINT RightHandMiddle1
                                    {
                                        OFFSET -5.441000 -0.088000 0.330000
                                        CHANNELS 3 Yrotation Xrotation Zrotation
                                        JOINT RightHandMiddle2
                                        {
                                            OFFSET -4.153000 0.000000 0.000000
                                            CHANNELS 3 Yrotation Xrotation Zrotation
                                            JOINT RightHandMiddle3
                                            {
                                                OFFSET -2.603000 0.000000 0.000000
                                                CHANNELS 3 Yrotation Xrotation Zrotation
                                                End Site
                                                {
                                                    OFFSET -2.076000 0.000000 0.000000
                                                }
                                            }
                                        }
                                    }
                                }
                                JOINT RightInHandRing
                                {
                                    OFFSET -3.539000 0.566000 -0.136000
                                    CHANNELS 3 Yrotation Xrotation Zrotation
                                    JOINT RightHandRing1
                                    {
                                        OFFSET -4.873000 -0.023000 -0.504000
                                        CHANNELS 3 Yrotation Xrotation Zrotation
                                        JOINT RightHandRing2
                                        {
                                            OFFSET -3.619000 0.000000 0.000000
                                            CHANNELS 3 Yrotation Xrotation Zrotation
                                            JOINT RightHandRing3
                                            {
                                                OFFSET -2.511000 0.000000 0.000000
                                                CHANNELS 3 Yrotation Xrotation Zrotation
                                                End Site
                                                {
                                                    OFFSET -1.952000 0.000000 0.000000
                                                }
                                            }
                                        }
                                    }
                                }
                                JOINT RightInHandPinky
                                {
                                    OFFSET -3.324000 0.494000 -1.264000
                                    CHANNELS 3 Yrotation Xrotation Zrotation
                                    JOINT RightHandPinky1
                                    {
                                        OFFSET -4.354000 -0.023000 -1.147000
                                        CHANNELS 3 Yrotation Xrotation Zrotation
                                        JOINT RightHandPinky2
                                        {
                                            OFFSET -2.898000 0.000000 0.000000
                                            CHANNELS 3 Yrotation Xrotation Zrotation
                                            JOINT RightHandPinky3
                                            {
                                                OFFSET -1.831000 0.000000 0.000000
                                                CHANNELS 3 Yrotation Xrotation Zrotation
                                                End Site
                                                {
                                                    OFFSET -1.730000 0.000000 0.000000
                                                }
                                            }
                                        }
                                    }
                                }
                            }
                        }
                    }
                }
                JOINT LeftShoulder
                {
                    OFFSET 2.900000 13.340000 0.000000
                    CHANNELS 3 Yrotation Xrotation Zrotation
                    JOINT LeftArm
                    {
                        OFFSET 16.100000 0.000000 0.000000
                        CHANNELS 3 Yrotation Xrotation Zrotation
                        JOINT LeftForeArm
                        {
                            OFFSET 28.000000 0.000000 0.000000
                            CHANNELS 3 Yrotation Xrotation Zrotation
                            JOINT LeftHand
                            {
                                OFFSET 26.000000 0.000000 0.000000
                                CHANNELS 3 Yrotation Xrotation Zrotation
                                JOINT LeftHandThumb1
                                {
                                    OFFSET 1.937000 -0.484000 2.518000
                                    CHANNELS 3 Yrotation Xrotation Zrotation
                                    JOINT LeftHandThumb2
                                    {
                                        OFFSET 3.872000 0.000000 0.000000
                                        CHANNELS 3 Yrotation Xrotation Zrotation
                                        JOINT LeftHandThumb3
                                        {
                                            OFFSET 2.690000 0.000000 0.000000
                                            CHANNELS 3 Yrotation Xrotation Zrotation
                                            End Site
                                            {
                                                OFFSET 2.537000 0.000000 0.000000
                                            }
                                        }
                                    }
                                }
                                JOINT LeftInHandIndex
                                {
                                    OFFSET 3.389000 0.535000 2.080000
                                    CHANNELS 3 Yrotation Xrotation Zrotation
                                    JOINT LeftHandIndex1
                                    {
                                        OFFSET 5.485000 -0.096000 1.051000
                                        CHANNELS 3 Yrotation Xrotation Zrotation
                                        JOINT LeftHandIndex2
                                        {
                                            OFFSET 3.806000 0.000000 0.000000
                                            CHANNELS 3 Yrotation Xrotation Zrotation
                                            JOINT LeftHandIndex3
                                            {
                                                OFFSET 2.158000 0.000000 0.000000
                                                CHANNELS 3 Yrotation Xrotation Zrotation
                                                End Site
                                                {
                                                    OFFSET 1.898000 0.000000 0.000000
                                                }
                                            }
                                        }
                                    }
                                }
                                JOINT LeftInHandMiddle
                                {
                                    OFFSET 3.556000 0.544000 0.796000
                                    CHANNELS 3 Yrotation Xrotation Zrotation
                                    JOINT LeftHandMiddle1
                                    {
                                        OFFSET 5.441000 -0.088000 0.330000
                                        CHANNELS 3 Yrotation Xrotation Zrotation
                                        JOINT LeftHandMiddle2
                                        {
                                            OFFSET 4.153000 0.000000 0.000000
                                            CHANNELS 3 Yrotation Xrotation Zrotation
                                            JOINT LeftHandMiddle3
                                            {
                                                OFFSET 2.603000 0.000000 0.000000
                                                CHANNELS 3 Yrotation Xrotation Zrotation
                                                End Site
                                                {
                                                    OFFSET 2.076000 0.000000 0.000000
                                                }
                                            }
                                        }
                                    }
                                }
                                JOINT LeftInHandRing
                                {
                                    OFFSET 3.539000 0.566000 -0.136000
                                    CHANNELS 3 Yrotation Xrotation Zrotation
                                    JOINT LeftHandRing1
                                    {
                                        OFFSET 4.873000 -0.023000 -0.504000
                                        CHANNELS 3 Yrotation Xrotation Zrotation
                                        JOINT LeftHandRing2
                                        {
                                            OFFSET 3.619000 0.000000 0.000000
                                            CHANNELS 3 Yrotation Xrotation Zrotation
                                            JOINT LeftHandRing3
                                            {
                                                OFFSET 2.511000 0.000000 0.000000
                                                CHANNELS 3 Yrotation Xrotation Zrotation
                                                End Site
                                                {
                                                    OFFSET 1.952000 0.000000 0.000000
                                                }
                                            }
                                        }
                                    }
                                }
                                JOINT LeftInHandPinky
                                {
                                    OFFSET 3.324000 0.494000 -1.264000
                                    CHANNELS 3 Yrotation Xrotation Zrotation
                                    JOINT LeftHandPinky1
                                    {
                                        OFFSET 4.354000 -0.023000 -1.147000
                                        CHANNELS 3 Yrotation Xrotation Zrotation
                                        JOINT LeftHandPinky2
                                        {
                                            OFFSET 2.898000 0.000000 0.000000
                                            CHANNELS 3 Yrotation Xrotation Zrotation
                                            JOINT LeftHandPinky3
                                            {
                                                OFFSET 1.831000 0.000000 0.000000
                                                CHANNELS 3 Yrotation Xrotation Zrotation
                                                End Site
                                                {
                                                    OFFSET 1.730000 0.000000 0.000000
                                                }
                                            }
                                        }
                                    }
                                }
                            }
                        }
                    }
                }
            }
        }
    }
}
MOTION
Frames: 4
Frame Time: 0.011111
0.000000 97.119995 0.000000 0.000000 0.000000 0.000000 0.000000 0.000000 0.000000 0.000000 0.000000 0.000000 0.000000 0.000000 0.000000 0.000000 0.000000 0.000000 0.000000 0.000000 0.000000 0.000000 0.000000 0.000000 0.000000 0.000000 0.000000 0.000000 0.000000 0.000000 0.000000 0.000000 0.000000 0.000000 0.000000 0.000000 0.000000 0.000000 0.000000 0.000000 0.000000 0.000000 0.000000 0.000000 0.000000 0.000000 0.000000 0.000000 0.000000 0.000000 0.000000 0.000000 0.000000 0.000000 0.000000 0.000000 0.000000 0.000000 0.000000 0.000000 0.000000 0.000000 0.000000 0.000000 0.000000 0.000000 0.000000 0.000000 0.000000 0.000000 0.000000 0.000000 0.000000 0.000000 0.000000 0.000000 0.000000 0.000000 0.000000 0.000000 0.000000 0.000000 0.000000 0.000000 0.000000 0.000000 0.000000 0.000000 0.000000 0.000000 0.000000 0.000000 0.000000 0.000000 0.000000 0.000000 0.000000 0.000000 0.000000 0.000000 0.000000 0.000000 0.000000 0.000000 0.000000 0.000000 0.000000 0.000000 0.000000 0.000000 0.000000 0.000000 0.000000 0.000000 0.000000 0.000000 0.000000 0.000000 0.000000 0.000000 0.000000 0.000000 0.000000 0.000000 0.000000 0.000000 0.000000 0.000000 0.000000 0.000000 0.000000 0.000000 0.000000 0.000000 0.000000 0.000000 0.000000 0.000000 0.000000 0.000000 0.000000 0.000000 0.000000 0.000000 0.000000 0.000000 0.000000 0.000000 0.000000 0.000000 0.000000 0.000000 0.000000 0.000000 0.000000 0.000000 0.000000 0.000000 0.000000 0.000000 0.000000 0.000000 0.000000 0.000000 0.000000 0.000000 0.000000 0.000000 0.000000 0.000000 0.000000 0.000000 0.000000 0.000000 0.000000 0.000000 0.000000 0.000000 0.000000 0.000000
-0.076006 97.254860 -0.306388 178.914093 -177.713684 179.630127 0.370047 4.387878 0.147160 171.842667 177.771240 -179.106781 177.776596 -174.439117 -179.283585 3.395771 2.533687 -1.721654 7.533809 2.430751 1.369212 170.031693 -178.577271 -178.250992 0.279764 4.940141 0.024978 0.279916 4.845149 0.024985 1.307353 3.512527 0.139537 0.000000 -3.807315 0.110880 180.000000 -175.558121 -179.885162 3.681473 -3.276094 -0.142022 2.917614 1.267485 -1.074130 10.518598 -3.948440 87.652367 5.675022 -5.451976 2.364288 176.258987 179.025818 168.679794 53.534245 35.099277 5.491314 0.000010 0.000001 6.322536 0.000000 0.000002 4.210799 0.000000 -0.000000 0.000000 15.000004 -0.000001 24.760262 0.000000 -0.000000 20.258392 180.000000 -180.000000 -165.819122 0.000000 -0.000000 0.000000 180.000000 -180.000000 -155.784897 180.000000 -180.000000 -155.784927 180.000000 -179.999985 -163.872757 0.000000 -0.000000 0.000000 170.000000 -179.999985 -153.929810 180.000000 -179.999985 -153.929825 180.000000 -179.999985 -162.637253 0.000000 -0.000000 0.000000 160.000000 -179.999985 -164.171906 179.999985 -179.999985 -156.257858 0.000001 -0.000005 15.812279 2.781341 -1.458626 -0.291780 162.613373 -172.955154 95.697563 176.709427 -173.682465 177.998779 3.774936 3.963784 5.061317 145.268341 143.744904 -172.338516 179.999985 180.000000 172.454361 0.000000 -0.000002 -5.025403 0.000000 -0.000000 0.000000 165.000015 -180.000000 159.271042 180.000000 -180.000000 163.039948 180.000000 180.000000 168.127960 0.000000 -0.000000 0.000000 180.000000 -180.000000 157.394226 0.000001 0.000001 -22.605772 0.000000 -0.000000 -15.055434 0.000000 -0.000000 0.000000 9.999999 -0.000001 -22.322388 180.000000 -180.000000 157.677628 180.000000 180.000000 165.133286 0.000000 -0.000000 0.000000 19.999992 -0.000003 -28.240501 180.000000 180.000000 137.639236 180.000000 179.999985 151.787735
-0.079796 97.227592 -0.296571 178.937607 -177.716141 179.633011 0.340650 4.400187 0.143575 171.846756 177.778595 -179.103302 177.780792 -174.432770 -179.283936 3.375803 2.539350 -1.725233 7.527133 2.425347 1.372799 170.034302 -178.571320 -178.254425 0.277251 4.939834 0.022161 0.276554 4.844828 0.021575 1.292114 3.512509 0.133816 0.000000 -3.808228 0.110387 180.000000 -175.557068 -179.885666 3.691759 -3.276863 -0.142968 2.920972 1.282872 -1.053588 10.528926 -3.960043 87.641083 5.665470 -5.459745 2.357447 176.260773 179.027679 168.686020 53.532063 35.109127 5.495020 0.000007 -0.000000 6.322105 180.000000 -179.999985 -175.789474 0.000000 -0.000000 0.000000 14.999990 0.000001 24.760765 180.000000 -179.999985 -159.741165 180.000000 -179.999985 -165.818817 0.000000 -0.000000 0.000000 179.999985 -180.000000 -155.785217 179.999985 -179.999985 -155.785202 180.000000 -179.999985 -163.872940 0.000000 -0.000000 0.000000 170.000000 -180.000000 -153.937637 180.000000 -179.999985 -153.937637 180.000000 -180.000000 -162.642471 0.000000 -0.000000 0.000000 160.000000 180.000000 -164.177933 179.999985 -179.999985 -156.266922 180.000000 -179.999985 -164.193771 2.774107 -1.435081 -0.312875 162.653229 -172.925995 95.729553 176.719101 -173.693985 177.985672 3.771435 3.983591 5.065870 145.248245 143.739944 -172.346664 0.000007 -0.000003 -7.540979 180.000000 179.999985 174.977722 0.000000 -0.000000 0.000000 165.000000 180.000000 159.270691 0.000001 -0.000003 -16.960337 180.000000 -180.000000 168.127777 0.000000 -0.000000 0.000000 0.000001 0.000001 -22.600035 0.000002 -0.000001 -22.600040 180.000000 -180.000000 164.948364 0.000000 -0.000000 0.000000 10.000005 0.000003 -22.312925 180.000000 -179.999985 157.687088 0.000001 0.000002 -14.860401 0.000000 -0.000000 0.000000 19.999992 -0.000001 -28.237507 0.000005 0.000002 -42.356323 0.000001 -0.000001 -28.209312
-0.083545 97.220329 -0.288044 178.956711 -177.718674 179.633087 0.313735 4.410093 0.143614 171.852921 177.785385 -179.101334 177.780365 -174.427170 -179.282669 3.351056 2.544568 -1.726425 7.532320 2.416939 1.378188 170.030884 -178.568619 -178.260681 0.275791 4.939597 0.020219 0.274055 4.844625 0.020002 1.280639 3.512445 0.130814 0.000000 -3.807305 0.105742 0.000000 -4.441863 0.109519 3.709631 -3.275821 -0.146801 2.924461 1.292568 -1.035528 10.532563 -3.972969 87.625511 5.650150 -5.465678 2.358810 176.259949 179.001266 168.700363 53.521149 35.114288 5.493837 0.000003 -0.000004 6.325290 180.000000 179.999985 -175.787369 0.000000 -0.000000 0.000000 14.999995 -0.000005 24.748024 179.999985 -179.999985 -159.751633 180.000000 -179.999985 -165.826141 0.000000 -0.000000 0.000000 179.999985 -179.999985 -155.798096 179.999985 -179.999985 -155.798080 180.000000 -179.999985 -163.881516 0.000000 -0.000000 0.000000 170.000000 -179.999985 -153.949997 179.999985 -179.999985 -153.950012 180.000000 -179.999985 -162.650696 0.000000 -0.000000 0.000000 160.000000 180.000000 -164.186615 179.999985 -179.999985 -156.279953 180.000000 -179.999985 -164.202423 2.777344 -1.425264 -0.344762 162.657593 -172.909149 95.772659 176.732681 -173.687897 177.972321 3.770560 3.996114 5.073943 145.251083 143.730515 -172.362808 180.000000 -180.000000 172.452133 0.000000 0.000000 -5.026868 180.000000 180.000000 -180.000000 165.000000 -180.000000 159.273270 0.000001 -0.000001 -16.958216 0.000001 -0.000002 -11.870749 180.000000 180.000000 -180.000000 180.000000 180.000000 157.388474 180.000000 180.000000 157.388474 0.000001 0.000001 -15.059278 180.000000 180.000000 -180.000000 10.000002 0.000001 -22.310884 180.000000 -180.000000 157.689117 0.000000 0.000000 -14.859048 180.000000 180.000000 -180.000000 19.999987 -0.000000 -28.231421 180.000000 179.999985 137.652817 0.000000 -0.000002 -28.203217
